<svg xmlns="http://www.w3.org/2000/svg" viewBox="0 0 541.41 499.5"><defs><style>.cls-1{fill:#fff;}.cls-2{fill:none;stroke:#fff;stroke-miterlimit:10;stroke-width:15px;isolation:isolate;}</style></defs><g id="Layer_2" data-name="Layer 2"><g id="Layer_1-2" data-name="Layer 1"><path class="cls-1" d="M447.85,286h68.7a5.15,5.15,0,0,0,5.06-2.72c5.82-9.43,11.91-18.7,17.74-28.14,4-20.3.85-42.3,1.37-63.18h-125c3.06-5.46,9.74-17,9.74-17-52.7,0-167.43,1.1-220.12,1.14-3.41,0-5.92-.3-7.5-6-2.75-12.39-11.23-20.71-17.83-30.81,55.46-.83,207.86-.18,261.21-.26,3.73,0,5.84-1,7.72-4.33,13.46-23.83,27.1-46.69,40.58-70.65-55.5-1-110.54.13-166.06-.11v-.18c-52.91.2-241.09-1-293.77-.1L104.4,193c-10.58,0-20-.06-30.48,0-23.81,6.17-46.11,18.64-69.35,27-3,1.22-4.11,2.8-4.1,6.17C.59,277.6.53,329,.6,380.4L1.3,462c0,2.94.89,3.73,3.77,3.71q31.44-.14,62.88,0a5.61,5.61,0,0,0,5.34-2.93c14.27-21.56,28.53-43.12,43.1-64.47,3.16-4.63,2.14-9.28,2.07-14.07-.84-33.37-.48-66.86-.32-100.27h13.42V460.44c0,5.28,0,5.24,5.39,5.24,86.94-2.74,55.26,18.2,89.58-60.62l33.51,58c23.11-39.49,45.19-78.45,67.69-117.17l.85.23q0,58.31-.09,116.61c0,3.59,1,4.5,4.51,4.49q91.35-.15,182.7,0c3.38,0,4.49-.74,4.77-4.36.38-4.81,2-9.51,3.06-14.26l1-.16,4.77-23.38c3.41-16.59,9.34-32.61,8.72-49.9-.32-11.1,1.35-21.93.92-33.13-18.72,0-37.15,0-55.84,0H463.71c-5.23-.92-27.18,2.36-26.72-2.38,1.36-14.06.14-29,.8-42.54l-.32-11.06h10.34ZM78.43,203.35c9.54-.24,19.09,0,28.64-.12,5.4-.52,9.78,14,13.78,18.8H30.12l-.14-.69C46,215.34,61.37,205.61,78.43,203.35Zm28.13,189.34c-12.15,17.54-23,35.88-35.92,52.83-.92-52.42,0-104.8-.35-157.24,0-4.92,0-4.92,5-4.93,9.45,0,18.9,0,28.34-.09,2.54,0,3.46.69,3.47,3.34C106.3,321.79,109.18,357.79,106.56,392.69Zm84.22,58.92c0,3.74-1.48,4.11-6.62,3.57a167.74,167.74,0,0,0-35.56,0c-5.85.63-7.16.11-7.15-3.92q.13-88.62.06-177.21h-81V450.41a4.9,4.9,0,0,1-4.9,4.9h0c-13.37,0-26.73-.09-40.09.06-3.33,0-4.66-.68-4.65-4.41q.15-107.29,0-214.58c0-3,.73-4,3.87-4q54.21.17,108.43,0c2.72,0,4.22.76,5.67,3.31,20.06,35.26,40.67,70.2,60.59,105.55C192.89,377.51,189.6,415,190.78,451.61Zm28.46-58c-5.68,14.72-11.42,29.42-17.73,44V362l.75-.2q8.51,14.75,17,29.5a3.13,3.13,0,0,1,0,2.31Zm41.26-85.32c-11.58-20-22.75-39.39-34.22-59.26h68.43Zm269.91-97.65V249c-1.7,5.67-6.35,10.41-9.16,15.7l-.88-.26c0-11.7,0-23.4-.12-35.09-.46-7.55,5.92-12.78,9.17-19Zm-116.76-8c36.22-.11,72-.12,108.31-.14-5.29,8.73-7.73,16.92-19.67,15.74-33.9-.5-67.65-.18-101.58-.2,4.42-5.53,5.44-15.11,12.94-15.41ZM521,414.55c-2.68-11.41,3-21.26,6-31.58C527.64,394,523.3,404.08,521,414.55Zm-83.59-62.36c29.19.14,58.4-.68,87.55.21-3.53,14.19-8.48,27.79-12.41,41.84-1.15,3.95-2.86,4.7-9.46,3.65-33.62-6.25-67.5-2.61-101.15.16,10.91-15.2,20.42-28.86,31.35-43.45A6.18,6.18,0,0,1,437.43,352.19Zm-11.22-5c-9.75,12.69-18.17,27.2-28.7,38.89V286c9-.06,17.69.1,26.58,0,2.22-.08,3.09.66,3.08,3-.82,19.24,1.45,39.23-1,58.2ZM510,271.08c1,5.06-.87,5.14-3.36,5.13-38.61-.07-77.23.1-115.84-.1-3.47,0-4.31,1.1-4.31,4.36q.12,62.11,0,124.25c0,3.47,1.78,3.32,4.15,3.32H505.42c4.83,0,4.75,0,4.74,4.75-.05,13.19-.18,26.37.09,39.55.08,3.67-1.18,4.22-4.36,4.21-27.18-.1-54.36-.06-81.54-.06s-54.37-.05-81.55.07c-3.23,0-4.1-.9-4.09-4.11.09-41.19,0-82.37.23-123.56,0-3.5,2.16-7.22,4-10.45,16.65-29.32,34-58.26,50.54-87.63,1.3-2.37,2.86-2.91,5.3-2.91,36.16,0,75.57,1.21,111.73,1.11"/><polyline class="cls-2" points="333.92 124.97 275.78 15.74 215 125.85"/><polyline class="cls-2" points="362.16 179 357.76 171.07 335.73 129.67"/><polyline class="cls-2" points="34.66 461.74 14.15 492 527.73 492 510.51 463.62"/></g></g></svg>