<svg xmlns="http://www.w3.org/2000/svg" viewBox="0 0 726.92 707.34"><defs><style>.cls-1{fill:#c4c6c5;}.cls-1,.cls-2,.cls-3,.cls-4,.cls-5{stroke:#fff;stroke-miterlimit:10;stroke-width:2px;}.cls-2{fill:#96b2d6;}.cls-3{fill:#345784;}.cls-4{fill:#2e2c2b;}.cls-5{fill:#222943;}</style></defs><g id="Layer_2" data-name="Layer 2"><g id="Layer_1-2" data-name="Layer 1"><path class="cls-1" d="M13.35,704.76a.81.81,0,0,1-.88.61c-3.38,0-6.76,0-10.14,0A4.55,4.55,0,0,1,1,704.9V647.82a4.26,4.26,0,0,1,2.52-.53q20.92,0,41.83,0c.7,0,1.67-.46,2,.69a6.19,6.19,0,0,0-2.6-.24H4.49c-3,0-2.7-.31-2.7,2.69q0,25.89,0,51.78c0,.56,0,1.12,0,1.67,0,.71.33,1,1,1C6.33,704.83,9.84,705.1,13.35,704.76Z"/><path class="cls-2" d="M698.46,706.34c-.64-.74-1.77-.22-2.41-1,1.61-.13,3.12.46,4.71.59,2.64.2,5.21-.36,7.81-.55-.48.67-1.49.2-2,.91Z"/><path class="cls-2" d="M426,705.91a.8.8,0,0,0,0,.43h-8.16l-.42-.47Z"/><path class="cls-3" d="M142,705.82a1.58,1.58,0,0,0-.09.36c0,.06.09.11.15.16h-7.68a1.45,1.45,0,0,1,0-.35Z"/><path class="cls-2" d="M134.39,706a1.45,1.45,0,0,0,0,.35H132a.86.86,0,0,0,0-.45,3.26,3.26,0,0,1,.38-.18Z"/><path class="cls-4" d="M175.2,251.63c.76-.67,1.68-.38,2.53-.38q15.11,0,30.21,0h3c-25.74-44.6-51.26-88.81-77-133.39H292.74a13.51,13.51,0,0,1,1.91,0c1.49.22,2.25-.49,3-1.75q14.49-25.25,29.08-50.43L362.64,3.45c.35-.62.73-1.24,1.18-2a6.71,6.71,0,0,1,1.71,2.49q32.18,55.71,64.33,111.42a5.21,5.21,0,0,1,.47.83c.52,1.42,1.55,1.7,3,1.7,14.47,0,28.94,0,43.41,0H605.89c.29.77-.17,1.19-.44,1.65Q584.19,156.35,563,193.2c-.84,1.47-1.82,1.68-3.28,1.68q-40.29,0-80.57,0h-2.85c-.33.83.23,1.28.52,1.78,6.77,11.76,13.58,23.51,20.32,35.3a3.14,3.14,0,0,0,3.18,1.86c12.07-.08,24.14-.05,36.21,0a5.74,5.74,0,0,1,2.8.29L530.18,250a5.38,5.38,0,0,0,2.54.26q61.88,0,123.74,0c.86,0,1.87-.47,2.6.43H532.51c-.48,0-1,0-1.44,0a2,2,0,0,0-2.09,1.24c-1.51,2.8-3.1,5.56-4.66,8.34-3.19,5.29-6.32,10.62-9.41,16.39H627.46c1,0,1.92,0,2.88-.06-.88.87-2,.46-3,.46q-54.84,0-109.7,0c-.64,0-1.28,0-1.91,0a1.71,1.71,0,0,0-1.75,1c-1.64,2.91-3.34,5.78-5,8.67-1.17,2-2.35,4-3.5,6-5.13,8.93-10.23,17.87-15.38,26.78q-10.35,17.94-20.75,35.84c-4.68,8.08-9.38,16.14-14,24.25a56.65,56.65,0,0,0-4,7.33c-3.18,4.65-5.7,9.68-8.56,14.52-.58,1-1.59,1.83-1.43,3.18-1.09.43-1.31,1.55-1.81,2.4q-33.92,58.69-67.79,117.39a8,8,0,0,1-1.71,2.53c-11.48-19.86-22.87-39.56-34.25-59.26a.91.91,0,0,0-.17-.17.5.5,0,0,0-.2-.08,2.49,2.49,0,0,0-.34.07c-.24.6-.51,1.25-.76,1.91l-16.71,43.07c-2.16,5.57-4.31,11.16-6.49,16.73-.29.73-.3,1.91-1.67,1.52q0-13,.05-25.95a5,5,0,0,0,1.3-2.49q8.7-22.39,17.38-44.78a3.67,3.67,0,0,0-.26-3.57c-5.74-9.84-11.41-19.73-17.11-29.6a4.84,4.84,0,0,0-1.28-1.7,7.28,7.28,0,0,0-.45-1.34c-2.6-4.53-5.2-9.06-7.88-13.53-.45-.77-.56-1.9-1.7-2.15a6.41,6.41,0,0,0-1-2.66q-7.28-12.64-14.57-25.28-10.35-17.91-20.74-35.81c-3.91-6.76-7.79-13.54-11.7-20.31s-7.8-13.54-11.73-20.29c-2-3.44-4.06-6.84-6.09-10.26a111.53,111.53,0,0,0-5.76-10.08c-3.49-6.49-7.3-12.8-11-19.17a3,3,0,0,0-.5-.51c-1.09-2.84-2.9-5.28-4.33-7.93a3,3,0,0,0-3.09-1.68C197.71,251.64,186.46,251.62,175.2,251.63ZM588.5,128H151.34L370,506.86c2.29-3,151.21-261.28,151.64-263h-2.89q-106.24,0-212.49,0a4.08,4.08,0,0,1-4.15-2.32c-10.44-18.23-21-36.41-31.47-54.61-.35-.6-.94-1.12-.78-2a10.35,10.35,0,0,1,3.09-.15H552.6a13.44,13.44,0,0,1,1.68,0,2.63,2.63,0,0,0,2.87-1.58q15.33-26.72,30.76-53.37C588.21,129.36,588.73,128.88,588.5,128ZM286.87,194.86c.4.73.57,1.08.76,1.41,6.91,12,13.84,23.91,20.69,35.9a3,3,0,0,0,3.07,1.61q84.41,0,168.79,0c.58,0,1.25.26,1.77-.27a6,6,0,0,0-1.05-2.16c-6.58-11.42-13.21-22.8-19.71-34.26a3.84,3.84,0,0,0-3.92-2.23q-83.79.08-167.59,0Zm128.49-77.11L363.94,28.69l-51.41,89.06Z"/><path class="cls-5" d="M509,286.66c1.67-2.89,3.37-5.76,5-8.67a1.71,1.71,0,0,1,1.75-1c.63,0,1.27,0,1.91,0q54.86,0,109.7,0c1,0,2.09.41,3-.46,3.21-5.44,7-10.56,10.3-16.32h-3.07l-45.73,0-67.52,0c1.56-2.78,3.15-5.54,4.66-8.34a2,2,0,0,1,2.09-1.24c.48,0,1,0,1.44,0H659.06c0,.8.12,1.59.12,2.39q0,28.61,0,57.22a7,7,0,0,1-1.11,4c-6.82,10.6-13.57,21.24-20.34,31.86H568.54c-4.93,0-9.84.77-14.79.45-1.3-.08-1.63.58-1.61,1.74,0,2.24,0,4.47,0,6.71,0,.31-.08.63-.08,1,0,15.55,0,31.1,0,46.65,0,1.31.45,1.58,1.64,1.57,8.94-.05,17.87,0,26.8-.05l16,0,30.91.06h27.8c2.48,0,2.28-.19,2.18,2.37q-.83,23.46-1.64,46.92a15.27,15.27,0,0,1-.38,3.09q-4.14,16.84-8.26,33.69a2.18,2.18,0,0,1-.24.41c-.49,3.37-1.59,6.61-2.3,9.94s-2,6.68-2.22,10.2c-.11.11-.28.2-.32.33q-2,7.9-3.92,15.8a7.7,7.7,0,0,0-.1,1.67c-.05,3.35-.05,3.35-3.54,3.35q-34.39,0-68.81-.07-60.66,0-121.31,0c-3,0-3,0-3-2.87V414.14c0-3.19,0-6.39,0-9.59-.16-1.34.85-2.19,1.43-3.17,2.86-4.84,5.38-9.87,8.56-14.52,0,1,.07,2.08.07,3.12V518.29c0,3.75-.37,3.4,3.29,3.4h170c.56,0,1.12,0,1.68,0,1.16.08,1.58-.49,1.51-1.58,0-.56,0-1.12,0-1.68V475.5c0-3.54.32-3.24-3.2-3.24H503.85c-3.19,0-3,.26-3-3V339.54c0-.4,0-.8,0-1.2.07-1.78.08-1.8,2-1.85H624.89c3,0,3,0,3-3.08V289c0-2.37,0-2.39-2.37-2.39ZM643.76,414.31c-.79,0-1.27-.08-1.74-.08q-44.94,0-89.88,0a3.2,3.2,0,0,0-2.93,1.56q-15.93,22.19-31.92,44.33c-.39.55-1,1-.94,2.07H627c2.4,0,2.07.24,2.77-2q5.25-17,10.43-34.11C641.39,422.2,642.53,418.39,643.76,414.31ZM511,450.81l.5.1c.35-.43.71-.85,1-1.29Q526.72,429.9,541,410.18a5.62,5.62,0,0,0,1.08-3.54q0-28.75,0-57.51c0-.48,0-1,0-1.44,0-.77-.28-1.21-1.1-1.2-.56,0-1.12,0-1.68,0H514.07c-3.49,0-3.09-.31-3.09,3.06q0,49.47,0,98.95ZM638,326.09c.57.17.7-.07.82-.25,3.27-5.11,6.51-10.25,9.8-15.35a4.37,4.37,0,0,0,.55-2.51q0-19.91,0-39.8c0-.48.32-1.12-.46-1.51-.45.66-.91,1.3-1.34,1.95-2.73,4.23-5.42,8.49-8.2,12.68a6.84,6.84,0,0,0-1.18,4c.05,12.87,0,25.73,0,38.6ZM646,442.29a4.59,4.59,0,0,0-1,2.34c-1.51,4.88-2.84,9.81-4.52,14.62a42.11,42.11,0,0,0-2.55,17.11c.17,2.4,0,4.83,0,7.33.54-.19.49-.46.54-.68q2.65-10.78,5.29-21.59a61,61,0,0,0,1.79-7.91C646,449.8,645.9,446.05,646,442.29Z"/><path class="cls-5" d="M299.5,405.56c1.14.25,1.25,1.38,1.7,2.15,2.68,4.47,5.28,9,7.88,13.53a7.28,7.28,0,0,1,.45,1.34c0,1.6,0,3.19,0,4.79q0,38.67,0,77.35,0,13-.05,25.95c-.95,0-1.91.08-2.87.08l-65-.26c-3.22,0-3.22,0-3.22-3.34V346.56c0-.64,0-1.28,0-1.91.05-.91-.31-1.3-1.24-1.3-4.24,0-8.48,0-12.71,0-.93,0-1.32.38-1.25,1.29,0,.39,0,.8,0,1.2q.3,54.68.65,109.35a8.22,8.22,0,0,1-1.44,4.9q-22.92,34.13-45.72,68.33a4.24,4.24,0,0,1-4,2.21c-17.43-.11-34.85-.11-52.28-.14H105.74c-2.06,0-2.08,0-2.08-2.1q0-24.1,0-48.21,0-14,0-28,0-36.81,0-73.6,0-47.83,0-95.66a2.34,2.34,0,0,1,1.63-2.65q34.53-14.16,69-28.44a6.87,6.87,0,0,1,.92-.23c11.26,0,22.51,0,33.77,0a3,3,0,0,1,3.09,1.68c1.43,2.65,3.24,5.09,4.33,7.93-.87,0-1.75.07-2.63.07q-17,0-34,0A9.33,9.33,0,0,0,176,262q-21.47,8.88-42.94,17.73a3.44,3.44,0,0,0-2,1.26h94.17c.88,0,1.76-.05,2.64-.08A111.53,111.53,0,0,1,233.65,291H117.1c-3.75,0-3.37-.38-3.37,3.31q0,111.39,0,222.79c0,.55,0,1.12,0,1.67-.07,1.14.46,1.61,1.57,1.53.56,0,1.12,0,1.68,0H161.1c3.86,0,3.51.4,3.51-3.42q0-90.18,0-180.34c0-3.32,0-3.32,3.28-3.32h77.22c3.74,0,3.37-.37,3.37,3.31q0,90,0,180.1c0,.72,0,1.44,0,2.15-.06,1.16.49,1.59,1.59,1.52.56,0,1.12,0,1.68,0h44.36c3.53,0,3.27.32,3.27-3.19V408.67C299.39,407.64,299.46,406.6,299.5,405.56ZM175.32,512.11c.36-.42.59-.64.76-.89q18.46-27.59,36.95-55.17a4.73,4.73,0,0,0,.83-2.91c-.09-2.56-.15-5.11-.16-7.67q-.13-30.09-.25-60.18c-.07-13.27-.19-26.54-.29-39.8,0-2.13,0-2.13-2.1-2.16H177.73c-.48,0-1,0-1.44,0-.87,0-1.37.3-1.34,1.24,0,.48,0,1,0,1.44q0,81.76,0,163.53A4.28,4.28,0,0,0,175.32,512.11Z"/><path class="cls-4" d="M103.68,452.21q0,14,0,28c-.77.28-1,1-1.31,1.63Q72.59,533.36,42.83,584.94c-.25.45-.78.86-.45,1.51,3.1.33,603.76.49,641.26.16.56,0,1.11-.07,1.67-.11a.28.28,0,0,0,.17-.12,1.74,1.74,0,0,0,.15-.43Q664,548.5,642.28,510.79c.18-3.52,1.49-6.8,2.22-10.2s1.81-6.57,2.3-9.94a8.07,8.07,0,0,0,1.33,2.79q30,52,60,104c.51.89,1,1.78,1.61,2.88H18.42c-.12-.92.58-1.55,1-2.26Q50.18,544.69,81,491.37,91.74,472.7,102.53,454C102.89,453.4,103.29,452.81,103.68,452.21Z"/><path class="cls-4" d="M184.63,662v2.62l0,37.4a13.62,13.62,0,0,0,0,1.43c.11,1.1-.25,1.6-1.45,1.57-2.72-.07-5.44,0-8.15,0-.93,0-1.34-.33-1.25-1.27,0-.31,0-.64,0-1q0-26.61,0-53.22c0-.56,0-1.11.07-1.61a2.44,2.44,0,0,1,1.68-.32h13.9c1.83,0,1.84,0,2.4,2.14q4.37,16.66,8.74,33.34a6.62,6.62,0,0,0,1.19,2.59c.85-3.2,1.72-6.39,2.55-9.58,2.28-8.81,4.53-17.62,6.84-26.41.63-2.39.25-2.07,2.66-2.08q6.84,0,13.67,0c1.67,0,1.7.05,1.71,1.75q0,27,0,53.93c0,1.19-.25,1.74-1.57,1.7-2.64-.08-5.28,0-7.91,0-1,0-1.47-.36-1.37-1.39.05-.55,0-1.12,0-1.68q0-18.69,0-37.39c0-1,0-1.91,0-3.43a31.25,31.25,0,0,0-1.9,6.4c-3,11.76-5.88,23.53-8.82,35.29-.55,2.18-.56,2.18-2.82,2.19h-7c-2,0-2,0-2.51-2q-2.67-10.68-5.32-21.37-2.22-8.94-4.43-17.88c-.15-.6-.35-1.19-.53-1.79Z"/><path class="cls-4" d="M600.29,674.44c1.11.5,2.08.87,3,1.35,6.43,3.34,9.09,10.51,6.66,17.86-2.3,7-7.43,10.75-15.36,11.13-4.62.23-9.26.19-13.89.22-5.43,0-10.86,0-16.29,0-1.67,0-1.71,0-1.71-1.71q0-27,0-53.9c0-1.69,0-1.74,1.71-1.73,9.26.05,18.53-.17,27.79.15a19.74,19.74,0,0,1,5.66.89c5.46,1.8,9,5.45,9.91,11.18.93,5.93-1.34,10.62-6.44,13.87Zm-16.95,20.88v-.05h6.94a12.79,12.79,0,0,0,3.55-.49,6.16,6.16,0,0,0,4.65-4.41c1.49-6-1.79-9.4-6.32-10-5.57-.73-11.16-.3-16.74-.44-1,0-1.14.54-1.13,1.36,0,4.23,0,8.46,0,12.69,0,1.07.42,1.36,1.41,1.34C578.23,695.29,580.79,695.32,583.34,695.32Zm-.14-37.92v-.23c-2.47,0-4.94,0-7.41,0-1.13,0-1.54.34-1.52,1.51.07,3.42.07,6.86,0,10.28,0,1.21.42,1.48,1.53,1.46,4.38-.07,8.77-.07,13.15-.08a10.42,10.42,0,0,0,3.29-.55,6,6,0,0,0,4.13-4c1.32-4.28-1.07-8-5.52-8.37C588.31,657.24,585.75,657.4,583.2,657.4Z"/><path class="cls-4" d="M241,676.39q0-13.3,0-26.6c0-2.12,0-2.14,2-2.14h38.83c2.1,0,2.11,0,2.12,2s0,3.83,0,5.75,0,1.91-2,1.92H268.75c-4.8,0-9.59,0-14.38,0-1.65,0-1.68,0-1.69,1.73,0,3.36,0,6.71,0,10.07,0,1.16.39,1.52,1.52,1.51,4.64,0,9.27,0,13.9,0a33.1,33.1,0,0,1,9,1c6.49,1.87,10.29,6.33,11.53,12.77a16.88,16.88,0,0,1-3.92,15c-3.3,3.76-7.56,5.22-12.34,5.42-4.31.18-8.62.13-12.94.14-5.43,0-10.86,0-16.29,0-2.16,0-2.17,0-2.17-2.26Q241,689.58,241,676.39Zm20.18,18.93h1.2c3,0,6.07.16,9.06-.5a7,7,0,0,0,5.47-6.44c.18-3.73-1.29-5.94-4.73-7.08A9.5,9.5,0,0,0,271,681c-5.78-1.06-11.62-.38-17.43-.56-1,0-.89.69-.89,1.33,0,4.07,0,8.14,0,12.2,0,1.24.49,1.45,1.56,1.42C256.52,695.28,258.83,695.32,261.15,695.32Z"/><path class="cls-4" d="M655.31,668.28a8,8,0,0,0-1.63,2.24q-10.09,16.31-20.14,32.63a3.33,3.33,0,0,1-3.41,1.9c-2.63-.15-5.27-.09-7.91,0-1.17,0-1.53-.38-1.48-1.52.08-1.76,0-3.52,0-5.28V647.65h9.93c.73,0,1,.42.94,1.08s0,1.12,0,1.68v34.74a4.66,4.66,0,0,0,1.51-1.85q10.29-16.89,20.52-33.8a3.31,3.31,0,0,1,3.41-1.89c2.63.13,5.28.06,7.91,0,1,0,1.52.26,1.4,1.34a13.83,13.83,0,0,0,0,1.44v52.28c0,2.56.28,2.3-2.3,2.32-2.4,0-4.8,0-7.2,0-.88,0-1.36-.24-1.29-1.21,0-.55,0-1.11,0-1.67q0-15.6,0-31.18A6.1,6.1,0,0,0,655.31,668.28Z"/><path class="cls-4" d="M134.39,706l-2-.28a3,3,0,0,0-2.25-.35c-10.21-2.1-16.74-8.31-19.56-18.19a39.57,39.57,0,0,1,.27-22.46A24.87,24.87,0,0,1,133,646.78a35.05,35.05,0,0,1,12.13.76c9.62,2.55,15.77,8.74,18.41,18.28a38.68,38.68,0,0,1,0,21.07c-2.8,10-9.32,16.29-19.57,18.49-.68.15-1.28.71-2.05.44Zm-13.27-29.9a29.06,29.06,0,0,0,1.74,10.44,15.08,15.08,0,0,0,14.64,9.63,14.68,14.68,0,0,0,14-10.18,30.51,30.51,0,0,0,.1-19.33c-2-6.28-7.25-10-13.93-10.14-7-.18-12.41,3.35-14.86,9.57A30.12,30.12,0,0,0,121.12,676.09Z"/><path class="cls-4" d="M455.72,648a4.48,4.48,0,0,1,2.5-.32h37.65c.32,0,.64,0,1,0,1-.09,1.46.25,1.43,1.34-.05,2.31-.07,4.63,0,6.95,0,1.23-.51,1.54-1.59,1.44a13.83,13.83,0,0,0-1.44,0q-12.58,0-25.18,0c-3.13,0-2.72-.32-2.74,2.62,0,2.48,0,5,0,7.43,0,2.72-.42,2.62,2.52,2.62H493.1a11.52,11.52,0,0,0,1.44,0c1.14-.12,1.57.34,1.53,1.5-.07,2.16,0,4.32,0,6.47,0,1.79,0,1.82-1.88,1.82-7.92,0-15.83,0-23.75,0-3.61,0-3.06-.39-3.09,3,0,3.59,0,7.19,0,10.79,0,1.66,0,1.7,1.72,1.7h27.1a11.77,11.77,0,0,0,1.68,0c1.34-.17,1.6.5,1.56,1.67-.07,2.16-.1,4.32,0,6.47.07,1.36-.52,1.68-1.68,1.56-.32,0-.64,0-1,0H458.38c-.56,0-1.12,0-1.68,0s-1-.31-1-1c0-.4,0-.8,0-1.2V648Z"/><path class="cls-4" d="M13.35,704.76c-3.51.34-7,.07-10.54.15-.68,0-1-.29-1-1,0-.55,0-1.11,0-1.67q0-25.89,0-51.78c0-3-.26-2.69,2.7-2.69H44.76a6.19,6.19,0,0,1,2.6.24q0,28.34,0,56.68a74.35,74.35,0,0,1-11.75.07V659.23c0-1.83,0-1.86-1.79-1.86-3.84,0-7.67,0-11.5,0-2.48,0-5,.08-7.43,0-1.32-.05-1.61.46-1.59,1.66.07,3.11,0,6.23,0,9.34Q13.34,686.54,13.35,704.76Z"/><path class="cls-4" d="M509.18,676.12V649.75c0-2.08,0-2.11,2.09-2.1,8.31,0,16.62-.13,24.93.17a23.14,23.14,0,0,1,5.68.77c6.15,1.78,10.41,7,11.13,13.9.49,4.69,0,9.27-2.75,13.32a16.23,16.23,0,0,1-11.73,7.06c-4.77.64-9.57.45-14.36.5h-1c-2.43,0-2.33-.34-2.33,2.3,0,5.84,0,11.67,0,17.5,0,1.8,0,1.82-1.86,1.83-2.64,0-5.27,0-7.91,0-1.89,0-1.91,0-1.91-2Q509.18,689.56,509.18,676.12Zm11.7-10.63v6.93c0,.66,0,1.29.94,1.28,4.38-.05,8.78.26,13.12-.55a7.5,7.5,0,0,0,6.22-7.65,7.4,7.4,0,0,0-6.14-7.67,9.58,9.58,0,0,0-1.89-.32c-3.66-.07-7.32-.07-11-.17-1.14,0-1.29.53-1.27,1.45C520.9,661,520.88,663.25,520.88,665.49Z"/><path class="cls-4" d="M59.12,676.15q0-13.3,0-26.62c0-1.84,0-1.88,1.8-1.88,8.63,0,17.26-.12,25.9.19,5.61.19,10.27,2.21,13.46,7,2.66,4,3.26,8.48,2.69,13.11-1.08,8.74-6.56,13.95-15.39,15-4.87.59-9.74.33-14.61.41-2.16,0-2.17,0-2.18,2.26,0,5.84,0,11.67,0,17.51,0,1.84,0,1.86-1.82,1.87-2.72,0-5.44,0-8.15,0-1.66,0-1.7,0-1.7-1.75Q59.11,689.71,59.12,676.15Zm11.66-10.66v6.94c0,.67,0,1.28,1,1.27,4.38-.05,8.79.26,13.13-.54a7.59,7.59,0,0,0,6.26-7.66,7.49,7.49,0,0,0-6-7.63,12.77,12.77,0,0,0-2.6-.39c-3.42-.07-6.85,0-10.28-.14-1.35-.05-1.59.54-1.56,1.7C70.82,661.19,70.78,663.34,70.78,665.49Z"/><path class="cls-4" d="M346.33,676.16q0-13.3,0-26.61c0-1.86,0-1.9,1.77-1.89,8.4,0,16.79-.13,25.18.16a20.87,20.87,0,0,1,5.68.77c6.15,1.93,9.71,6.24,10.92,12.46a22.15,22.15,0,0,1-.28,9.75,16.18,16.18,0,0,1-13.71,12.05c-5.1.65-10.21.47-15.33.52-3,0-2.63-.33-2.64,2.72,0,5.67,0,11.35,0,17,0,1.86,0,1.88-1.76,1.89-2.72,0-5.44,0-8.15,0-1.64,0-1.67,0-1.67-1.74Q346.32,689.7,346.33,676.16Zm11.59-10.79c0,2.39,0,4.79,0,7.18,0,.79.26,1.17,1.11,1.15,4.3-.05,8.62.24,12.89-.52a7.62,7.62,0,0,0,6.4-7.56,7.52,7.52,0,0,0-6.09-7.77,11.24,11.24,0,0,0-2.36-.36c-3.51-.07-7,0-10.53-.15-1.23,0-1.46.5-1.43,1.57C358,661.06,357.92,663.22,357.92,665.37Z"/><path class="cls-4" d="M708.57,705.43c-2.6.19-5.17.75-7.81.55-1.59-.13-3.1-.72-4.71-.59-10.72-2.48-18.78-11.45-19.7-24.74a46.72,46.72,0,0,1,.94-14c2.82-11.94,12.59-20.89,27.65-20a23.58,23.58,0,0,1,14.85,5.84,21.68,21.68,0,0,1,5.82,9.48c.34,1,.21,1.57-1,1.82-3,.62-5.9,1.38-8.84,2.13-.9.23-1.25,0-1.51-.94-1.43-4.9-5.7-8.51-12-8.46a13.1,13.1,0,0,0-12.61,9,27.33,27.33,0,0,0-1.46,8.45,37.24,37.24,0,0,0,1.26,12.57c2.11,6.82,7.94,10.44,15,9.36a11.32,11.32,0,0,0,8.3-5.87,23.5,23.5,0,0,0,2.25-5.91,29.2,29.2,0,0,1,5.27,1.43c1.39.37,2.75.81,4.12,1.24,1.63.52,1.84.77,1.31,2.39-2.51,7.73-7.08,13.52-15.24,15.82Z"/><path class="cls-4" d="M426,705.91l-8.54,0a31.63,31.63,0,0,1-8.48-3,25,25,0,0,1-12.08-16.27,42.14,42.14,0,0,1,.24-20.87c2.88-11,12.27-19.88,27.19-19.06a24,24,0,0,1,14.36,5.25,21.45,21.45,0,0,1,6.59,10.37c.28.86.19,1.26-.82,1.48-3,.66-6.06,1.4-9.07,2.18-.92.24-1.25-.09-1.57-.88-2.43-5.95-6.34-8.66-12.19-8.51a12.83,12.83,0,0,0-12.5,9.4,34.81,34.81,0,0,0,.26,21.46c2.21,6.6,8.54,9.84,15.57,8.3a10.89,10.89,0,0,0,6.71-4.71,18.15,18.15,0,0,0,2.25-4.75c.74-2.29.75-2.29,3.21-1.54s5,1.59,7.55,2.3c.94.27,1.06.66.79,1.55-2.77,8.89-8.07,15.13-17.65,16.91C427.16,705.54,426.64,706,426,705.91Z"/><path class="cls-4" d="M290.59,647.65c4.23,0,8.05,0,11.87,0,1.16,0,1.45.71,1.82,1.53q4,9,8,17.89c1.47,3.27,2.95,6.54,4.46,9.88a4.43,4.43,0,0,0,1.22-2.31c3.23-8.33,6.42-16.67,9.64-25,.83-2.17.39-2,2.88-2,3.18,0,6.35,0,9.49,0,.34.9-.16,1.42-.4,2q-9.27,20.89-18.58,41.75a53.63,53.63,0,0,1-5.14,9.18A11.83,11.83,0,0,1,305,705.81c-1.84-.09-3.66-.3-5.49-.44-.93-.07-1.48-.4-1.46-1.45q.06-3.12,0-6.23c0-1,.44-1.22,1.33-1.16a24.38,24.38,0,0,0,6-.16,5.83,5.83,0,0,0,4.47-3.21c.18-.36.34-.72.54-1.07a5.6,5.6,0,0,0,0-6c-6.25-11.85-12.3-23.81-18.42-35.74C291.52,649.57,291.15,648.79,290.59,647.65Z"/><path class="cls-4" d="M596.43,404.11l-16,0c.06-.62-.37-1-.64-1.51Q566.41,379.39,553,356.16c-.24-.41-.39-.89-.85-1.13,0-2.24,0-4.47,0-6.71,0-1.16.31-1.82,1.61-1.74,5,.32,9.86-.46,14.79-.45h69.21c-.75.72-1.67.34-2.5.34q-34.39,0-68.79,0h-2.67c-.22,1.09.5,1.73.91,2.43q15.16,26.36,30.39,52.68C595.57,402.41,596,403.26,596.43,404.11Z"/><path class="cls-1" d="M35.63,704.76a74.35,74.35,0,0,0,11.75-.07c-.07.34-.25.62-.6.63-3.57.09-7.14.18-10.71-.06C35.91,705.25,35.78,704.94,35.63,704.76Z"/><path class="cls-3" d="M130.11,705.36a3,3,0,0,1,2.25.35,3.26,3.26,0,0,0-.38.18Z"/><path class="cls-1" d="M588.5,128c.23.84-.29,1.32-.59,1.84q-15.39,26.69-30.76,53.37a2.63,2.63,0,0,1-2.87,1.58,13.44,13.44,0,0,0-1.68,0H273a10.35,10.35,0,0,0-3.09.15c-.16.83.43,1.35.78,2,10.49,18.2,21,36.38,31.47,54.61a4.08,4.08,0,0,0,4.15,2.32q106.25-.08,212.49,0h2.89c-.43,1.76-149.35,260.08-151.64,263L151.34,128ZM317.75,297.36c17.79,30.82,35.42,61.35,53.21,92.19l53.22-92.19Z"/><path class="cls-3" d="M299.5,405.56c0,1-.11,2.08-.11,3.11v108.4c0,3.51.26,3.19-3.27,3.19H251.76c-.56,0-1.12,0-1.68,0-1.1.07-1.65-.36-1.59-1.52,0-.71,0-1.43,0-2.15q0-90.06,0-180.1c0-3.68.37-3.3-3.37-3.31H167.9c-3.28,0-3.28,0-3.28,3.32q0,90.17,0,180.34c0,3.82.35,3.41-3.51,3.42H117c-.56,0-1.12,0-1.68,0-1.11.08-1.64-.39-1.57-1.53,0-.55,0-1.12,0-1.67q0-111.4,0-222.79c0-3.69-.38-3.31,3.37-3.31H233.65c2,3.42,4.09,6.82,6.09,10.26q5.89,10.13,11.73,20.29c3.91,6.77,7.79,13.55,11.7,20.31q10.36,17.91,20.74,35.81,7.3,12.63,14.57,25.28A6.41,6.41,0,0,1,299.5,405.56Z"/><path class="cls-3" d="M509,286.66H625.56c2.35,0,2.36,0,2.37,2.39v44.37c0,3.07,0,3.08-3,3.08H502.82c-1.89.05-1.9.07-2,1.85,0,.4,0,.8,0,1.2V469.29c0,3.22-.19,3,3,3H624.73c3.52,0,3.19-.3,3.2,3.24v42.93c0,.56,0,1.12,0,1.68.07,1.09-.35,1.66-1.51,1.58-.56,0-1.12,0-1.68,0h-170c-3.66,0-3.29.35-3.29-3.4V390c0-1-.05-2.08-.07-3.12a56.65,56.65,0,0,1,4-7.33c4.63-8.11,9.33-16.17,14-24.25q10.38-17.92,20.75-35.84c5.15-8.91,10.25-17.85,15.38-26.78C506.65,290.65,507.83,288.66,509,286.66Z"/><path class="cls-2" d="M524.32,260.23l67.52,0,45.73,0h3.07c-3.34,5.76-7.09,10.88-10.3,16.32-1,0-1.92.06-2.88.06H514.91C518,270.85,521.13,265.52,524.32,260.23Z"/><path class="cls-2" d="M227.89,280.87c-.88,0-1.76.08-2.64.08H131.08a3.44,3.44,0,0,1,2-1.26Q154.52,270.81,176,262a9.33,9.33,0,0,1,3.72-.71q17,0,34,0c.88,0,1.76,0,2.63-.07a3,3,0,0,1,.5.51C220.59,268.07,224.4,274.38,227.89,280.87Z"/><path class="cls-2" d="M309.5,504.72q0-38.67,0-77.35c0-1.6,0-3.19,0-4.79a4.84,4.84,0,0,1,1.28,1.7c5.7,9.87,11.37,19.76,17.11,29.6a3.67,3.67,0,0,1,.26,3.57q-8.73,22.38-17.38,44.78A5,5,0,0,1,309.5,504.72Z"/><path class="cls-2" d="M643.76,414.31c-1.23,4.08-2.37,7.89-3.53,11.7Q635,443.07,629.8,460.12c-.7,2.27-.37,2-2.77,2H516.35c-.08-1,.55-1.52.94-2.07q16-22.17,31.92-44.33a3.2,3.2,0,0,1,2.93-1.56q44.94.06,89.88,0C642.49,414.23,643,414.28,643.76,414.31Z"/><path class="cls-2" d="M511,450.81v-2.32q0-49.47,0-98.95c0-3.37-.4-3.05,3.09-3.06h25.16c.56,0,1.12,0,1.68,0,.82,0,1.13.43,1.1,1.2,0,.48,0,1,0,1.44q0,28.75,0,57.51a5.62,5.62,0,0,1-1.08,3.54q-14.25,19.69-28.45,39.44c-.32.44-.68.86-1,1.29Z"/><path class="cls-2" d="M638,326.09v-2.17c0-12.87,0-25.73,0-38.6a6.84,6.84,0,0,1,1.18-4c2.78-4.19,5.47-8.45,8.2-12.68.43-.65.89-1.29,1.34-1.95.78.39.46,1,.46,1.51q0,19.9,0,39.8a4.37,4.37,0,0,1-.55,2.51c-3.29,5.1-6.53,10.24-9.8,15.35C638.65,326,638.52,326.26,638,326.09Z"/><path class="cls-2" d="M646,442.29c-.13,3.76-.07,7.51-.46,11.22a61,61,0,0,1-1.79,7.91q-2.62,10.8-5.29,21.59c0,.22,0,.49-.54.68,0-2.5.14-4.93,0-7.33a42.11,42.11,0,0,1,2.55-17.11c1.68-4.81,3-9.74,4.52-14.62A4.59,4.59,0,0,1,646,442.29Z"/><path class="cls-2" d="M175.32,512.11a4.28,4.28,0,0,1-.36-2.57q0-81.77,0-163.53c0-.48,0-1,0-1.44,0-.94.47-1.28,1.34-1.24.48,0,1,0,1.44,0h33.33c2.06,0,2.08,0,2.1,2.16.1,13.26.22,26.53.29,39.8q.15,30.09.25,60.18c0,2.56.07,5.11.16,7.67a4.73,4.73,0,0,1-.83,2.91q-18.5,27.57-36.95,55.17C175.91,511.47,175.68,511.69,175.32,512.11Z"/><path class="cls-4" d="M317.75,297.36H424.18L371,389.55C353.17,358.71,335.54,328.18,317.75,297.36Zm17.33,10L371,369.52c12.05-20.88,23.94-41.4,35.86-62.15Z"/></g></g></svg>